<?xml version="1.0" encoding="iso-8859-1"?>
<!-- Generator: Adobe Illustrator 18.0.0, SVG Export Plug-In . SVG Version: 6.00 Build 0)  -->
<!DOCTYPE svg PUBLIC "-//W3C//DTD SVG 1.1//EN" "http://www.w3.org/Graphics/SVG/1.1/DTD/svg11.dtd">
<svg version="1.1" id="Capa_1" xmlns="http://www.w3.org/2000/svg" xmlns:xlink="http://www.w3.org/1999/xlink" x="0px" y="0px"
	 viewBox="0 0 209.357 209.357" style="enable-background:new 0 0 209.357 209.357;" xml:space="preserve">
<path d="M164.41,126.707l25.478,25.478c11.683,11.681,11.683,30.694,0.001,42.383c-5.661,5.659-13.187,8.775-21.191,8.775
	c-8.006,0-15.532-3.117-21.191-8.777l-35.38-35.381l10.629-10.629l29.977,29.978l6.499-6.499l-29.977-29.978l8.124-8.125
	l29.977,29.98l6.5-6.499l-29.977-29.98l0.454-0.454c3.035,0.42,6.1,0.632,9.165,0.632
	C157.191,127.611,160.835,127.294,164.41,126.707z M47.903,38.772l-15.415-19.16L11.431,4.679L0,16.109l14.935,21.057L34.092,52.58
	l35.646,35.645l13.809-13.809L47.903,38.772z M206.948,44.893c5.79,19.096,1.144,40.678-13.952,55.774
	c-10.909,10.908-25.202,16.356-39.499,16.356c-4.27,0-8.543-0.486-12.723-1.459L51.66,204.679l-32.797-8.905l-8.905-32.797
	l89.114-89.113c-4.228-18.176,0.73-38.056,14.897-52.223C124.879,10.731,139.175,5.28,153.472,5.28
	c5.487,0,10.975,0.803,16.271,2.409L140.26,37.171l7.861,29.345l29.345,7.861L206.948,44.893z M48.268,166.369
	c-1.522-1.522-3.517-2.283-5.513-2.283c-1.995,0-3.991,0.761-5.514,2.283c-3.044,3.045-3.044,7.981,0,11.026
	c1.523,1.522,3.518,2.283,5.513,2.283c1.995,0,3.991-0.761,5.513-2.284C51.312,174.351,51.312,169.413,48.268,166.369z"/>
<g>
</g>
<g>
</g>
<g>
</g>
<g>
</g>
<g>
</g>
<g>
</g>
<g>
</g>
<g>
</g>
<g>
</g>
<g>
</g>
<g>
</g>
<g>
</g>
<g>
</g>
<g>
</g>
<g>
</g>
</svg>
