<?xml version="1.0" encoding="iso-8859-1"?>
<!-- Generator: Adobe Illustrator 19.0.0, SVG Export Plug-In . SVG Version: 6.00 Build 0)  -->
<svg version="1.1" id="Layer_1" xmlns="http://www.w3.org/2000/svg" xmlns:xlink="http://www.w3.org/1999/xlink" x="0px" y="0px"
	 viewBox="0 0 511.999 511.999" style="enable-background:new 0 0 511.999 511.999;" xml:space="preserve">
<g>
	<g>
		<path d="M465.006,173.431c-4.247-20.922-22.824-36.109-44.175-36.109c-21.349,0-39.928,15.185-44.176,36.109l-10.494,51.697
			c3.798-4.526,7.914-7.704,12.079-9.891l8.088-39.844c3.317-16.342,17.828-28.203,34.503-28.203s31.186,11.861,34.501,28.203
			l8.088,39.844c4.166,2.187,8.281,5.364,12.079,9.891L465.006,173.431z"/>
	</g>
</g>
<g>
	<g>
		<path d="M407.698,220.307c1.557,5.963,6.932,10.164,13.134,10.164c6.308,0,11.61-4.327,13.134-10.164
			C425.319,220.307,415.453,220.307,407.698,220.307z"/>
	</g>
</g>
<g>
	<g>
		<path d="M511.144,341.973c-4.681-12.792-24.393-66.942-33.353-93.013c-5.575-16.217-15.488-28.653-32.562-28.653h-3.27
			c-1.647,10.189-10.48,18.002-21.127,18.002c-10.367,0-19.443-7.585-21.127-18.002h-3.271c-17.147,0-26.988,12.445-32.562,28.654
			c-2.325,6.766-5.33,15.298-8.581,24.432c-0.04-7.933-0.124-24.713-0.159-31.526c-0.095-19.18-15.778-34.784-34.959-34.784H307.13
			c-12.025,32.125-7.275,19.434-26.61,71.084c-19.235-51.385-14.681-39.219-26.61-71.084h-13.044
			c-18.893,0-34.615,15.234-34.945,34.349c-0.002,0.145-0.012,0.289-0.013,0.434l-0.545,108.529c0,0.062,0.008,0.121,0.009,0.183
			c0.059,8.078,6.589,14.623,14.691,14.663c0.024,0,0.05,0,0.074,0c8.124,0,14.73-6.565,14.772-14.699l0.545-108.529
			c0.008-1.639,1.341-2.962,2.979-2.958s2.964,1.334,2.964,2.972c-0.01,52.058-0.158,135.943-0.158,248.318
			c0,9.791,7.937,17.727,17.728,17.727c9.791,0,17.728-7.936,17.728-17.727V348.651h7.654v141.694
			c0,9.79,7.937,17.727,17.728,17.727c9.79,0,17.728-7.936,17.728-17.727c0-112.599-0.148-196.061-0.158-248.318
			c0-1.638,1.325-2.968,2.964-2.972s2.971,1.318,2.979,2.957c0.051,10.054,0.492,97.832,0.545,108.529
			c0.041,8.134,6.646,14.699,14.772,14.699c0.024,0,0.051,0,0.074,0c6.323-0.031,10.822-4.441,13.763-9.636
			c1.047-1.849,15.225-39.403,27.712-74.533l3.199,8.343c-12.084,19.97-20.024,41.795-23.621,64.956
			c-2.029,13.066-14.184,91.328-16.213,104.392c-1.993,12.833,7.965,24.394,20.887,24.394h16.679v7.189
			c0,9.333,7.565,16.9,16.9,16.9s16.9-7.566,16.9-16.9v-7.189h7.297v7.189c0,9.333,7.565,16.9,16.9,16.9s16.9-7.566,16.9-16.9
			v-7.189h16.678c12.974,0,22.876-11.583,20.887-24.394c-1.818-11.71-14.561-93.757-16.213-104.392
			c-3.597-23.162-11.538-44.987-23.621-64.956l3.199-8.343c11.063,31.125,25.3,70.075,25.482,70.572
			c2.671,7.305,10.752,11.061,18.063,8.39C510.094,357.352,513.793,349.221,511.144,341.973z M394.885,260.149
			c2.901-2.989,6.955-4.853,11.45-4.853c4.493,0,8.542,1.864,11.44,4.853c1.253,1.293,2.294,2.794,3.058,4.45
			c0.764-1.656,1.804-3.157,3.058-4.45c2.898-2.989,6.947-4.853,11.44-4.853c4.495,0,8.548,1.865,11.45,4.853
			c3.837,3.953,5.02,9.778,3.029,14.913l-4.504,11.618h-48.947l-4.503-11.618C389.865,269.927,391.049,264.102,394.885,260.149z
			 M468.787,356.057L485,460.449c0.961,6.188-3.828,11.735-10.042,11.735c-25.11,0-83.129,0-108.251,0
			c-6.188,0-11.003-5.551-10.042-11.735l16.213-104.392c3.2-20.606,10.219-40.407,20.662-58.402h54.587
			C458.567,315.65,465.586,335.451,468.787,356.057z"/>
	</g>
</g>
<g>
	<g>
		<path d="M420.832,152.63c-16.12,0-29.187,13.067-29.187,29.187c0,16.172,13.146,29.187,29.187,29.187
			c16.033,0,29.187-13.007,29.187-29.187C450.019,165.698,436.951,152.63,420.832,152.63z"/>
	</g>
</g>
<g>
	<g>
		<path d="M280.521,136.091c-16.856,0-30.617,13.644-30.617,30.617c0,16.934,13.744,30.617,30.617,30.617
			c16.85,0,30.617-13.646,30.617-30.617C311.137,149.85,297.485,136.091,280.521,136.091z"/>
	</g>
</g>
<g>
	<g>
		<path d="M292.078,199.969c-0.002,0.001-0.003,0.001-0.006,0.002l-11.552,6.351l-11.552-6.351
			c-0.002-0.001-0.004-0.001-0.006-0.002c-1.403-0.766-3.174,0.228-3.174,1.882c0,2.041,0,13.222,0,14.467
			c0,1.628,1.75,2.667,3.18,1.88l11.552-6.351l11.552,6.351c1.427,0.785,3.18-0.25,3.18-1.88c0-1.266,0-12.387,0-14.467
			C295.252,200.189,293.475,199.206,292.078,199.969z"/>
	</g>
</g>
<g>
	<g>
		<circle cx="280.526" cy="227.66" r="4.028"/>
	</g>
</g>
<g>
	<g>
		<circle cx="280.526" cy="246.995" r="4.028"/>
	</g>
</g>
<g>
	<g>
		<path d="M211.202,405.225h-13.294c0.599-2.545,0.398,7.689,0.398-134.547c0-7.841-6.379-14.414-14.414-14.414h-17.77v-51.512
			c2.275,3.789,6.953,5.586,11.286,4.017c4.898-1.776,7.429-7.187,5.654-12.085l-17.886-49.336c-1.354-3.733-4.899-6.219-8.87-6.219
			h-19.669V97.203l-18.779-28.207V34.418h8.049c3.704,0,6.707-3.003,6.707-6.707c0-3.704-3.003-6.707-6.707-6.707h-8.049V10.632
			c0-3.704-3.003-6.706-6.707-6.706c-3.704,0-6.707,3.002-6.707,6.706v10.371h-8.048c-3.704,0-6.707,3.003-6.707,6.707
			c0,3.704,3.004,6.707,6.707,6.707h8.048v34.58L85.665,97.203v43.926H65.996c-3.97,0-7.515,2.486-8.87,6.219l-17.886,49.336
			c-1.776,4.898,0.756,10.309,5.654,12.085c4.313,1.563,9.006-0.206,11.286-3.982v51.478h-17.77c-7.96,0-14.414,6.453-14.414,14.414
			c0,142.21-0.18,132.094,0.398,134.547H11.099C4.97,405.225,0,410.194,0,416.325c0,6.13,4.97,11.099,11.099,11.099h200.102
			c6.13,0,11.099-4.969,11.099-11.099S217.331,405.225,211.202,405.225z M102.826,405.225H73.66v-56.891
			c0-17.843,12.469-32.764,29.166-36.553V405.225z M86.909,202.074c0-13.388,10.853-24.241,24.241-24.241
			c13.388,0,24.241,10.853,24.241,24.241s-10.853,24.241-24.241,24.241C97.762,226.315,86.909,215.462,86.909,202.074z
			 M148.642,405.226h-29.167v-0.001v-93.443c16.698,3.787,29.167,18.709,29.167,36.553V405.226z"/>
	</g>
</g>
<g>
</g>
<g>
</g>
<g>
</g>
<g>
</g>
<g>
</g>
<g>
</g>
<g>
</g>
<g>
</g>
<g>
</g>
<g>
</g>
<g>
</g>
<g>
</g>
<g>
</g>
<g>
</g>
<g>
</g>
</svg>
