<svg id="Layer_1" data-name="Layer 1" xmlns="http://www.w3.org/2000/svg" viewBox="0 0 39.99 40"><defs><style>.cls-1{fill:#f04f41;}.cls-1,.cls-2,.cls-3{fill-rule:evenodd;}.cls-2{fill:#b42f25;}.cls-3{fill:#fff;}</style></defs><title>yt_icon</title><path class="cls-1" d="M0,0H40V40H0Z"/><path class="cls-2" d="M8.92,28.44,11,13.75l20.4-1.25L40,20.94V40H20.66Z"/><path class="cls-3" d="M31.36,11.62c-1.5-1.09-8.69-1-11.34-1s-9.53,0-11.08.92-2.21,4.9-2.27,8.64h0c.06,3.74.82,7.5,2.27,8.38s8.32.91,11.08.91,9.84,0,11.34-1c1.33-1,2-4.58,2-8.25h0C33.31,16.46,32.69,12.58,31.36,11.62ZM17.46,25V15l7.61,5Z"/></svg>